# xmcd CD Database Entry
#
# Track frame offsets:
# 150
# 28840
# 45885
# 64820
# 78943
# 88468
# 118825
# 136648
# 156928
# 184380
# 194903
# 204195
# 221663
# 245580
#
# Disc length: 3893 seconds
#
# Revision: 1
# Processed by: cddbd v1.4PL0 Copyright (c) Steve Scherf et al.
# Submitted via: tcd 2.0b
#
DISCID=cd0f330e
DTITLE=Boito - Mefistofele  CD 1 of 2
DYEAR=1900
DGENRE=
TTITLE0=Prologo in cielo-Preludio
TTITLE1=Prologo in cielo-Chorus "Ave signor"
TTITLE2=Prologo in cielo-Scherzo instrumentale "Appearence of Mefisto
TTITLE2=fle":Trio
TTITLE3=Prologo in cielo-Intermezzo
TTITLE4=Prologo in cielo-Scherzo vocale Cherubim:"Siam nimbi volanti 
TTITLE4=dai limbi"
TTITLE5=Prologo in cielo-Chorus:"Salve Regina!"
TTITLE6=Atto I: Chorus "perche di la"
TTITLE7=Atto I: "Al soave raggiar"/Chorus "Juhe, juhe"
TTITLE8=Atto I: Seb=na e romanza-Faust "Sediam sovra quel sasso"
TTITLE9=Atto I: Faust "Dai cmpi, dai prati.."
TTITLE10=Atto I: Faust "Ola!", "Chi urla?"
TTITLE11=Atto I: La canzone dei fischio- Mefistofele "Son lo spirito c
TTITLE11=he nega"
TTITLE12=Atto I: Faust and Mefistofele "Strano figlio del caos" 
TTITLE13=Atto II: Margherita "Cavaliere ilustre.."
EXTD=La Scala de Milan\nRiccardo Muti-  conductor\nRamey - Mefisto
EXTD=fele\nLa Scola-Faust\nCrider-Margherita/Elena\nJankovic-Marta
EXTD=/Pantalis\nGavazzi-Wagner/Nereo
EXTT0=
EXTT1=
EXTT2=
EXTT3=
EXTT4=
EXTT5=
EXTT6=
EXTT7=
EXTT8=
EXTT9=
EXTT10=
EXTT11=
EXTT12=
EXTT13=
PLAYORDER=
